<svg width="598" height="448" viewBox="0 0 598 448" fill="none" xmlns="http://www.w3.org/2000/svg">
<g filter="url(#filter0_d_1_53)">
<path d="M245.946 126.195C247.703 122.292 254.437 107.912 270.775 99.6583C278.89 95.6463 287.882 93.7133 296.938 94.0344C325.23 94.4336 344.52 114.926 349 119.937C353.474 114.926 372.771 94.468 401.063 94.0344C410.118 93.7133 419.111 95.6463 427.226 99.6583C443.564 107.919 450.298 122.292 452.054 126.195C455.502 133.995 457.185 142.455 456.984 150.976C456.984 153.977 456.728 166.223 448.984 182.255C441.068 198.652 429.874 208.55 422.234 215.984C403.556 234.047 382.693 249.769 360.276 262.934C353.315 267.022 344.686 267.022 337.725 262.934C315.308 249.769 294.444 234.047 275.767 215.984C268.161 208.564 256.933 198.665 249.009 182.255C241.272 166.223 241.024 153.977 241.017 150.976C240.812 142.455 242.495 133.994 245.946 126.195Z" fill="url(#paint0_linear_1_53)"/>
<g filter="url(#filter1_f_1_53)">
<path d="M442.512 133.825C440.918 130.331 434.807 117.456 419.982 110.066C412.618 106.474 404.458 104.743 396.242 105.031C370.569 105.388 353.065 123.736 349 128.223C344.941 123.736 327.43 105.419 301.758 105.031C293.541 104.743 285.381 106.474 278.017 110.066C263.192 117.462 257.081 130.331 255.488 133.825C252.359 140.81 250.832 148.384 251.015 156.013C251.015 158.7 251.247 169.665 258.273 184.019C265.457 198.7 275.614 207.562 282.547 214.219C299.495 230.39 318.427 244.467 338.768 256.255C345.085 259.915 352.915 259.915 359.231 256.255C379.573 244.467 398.504 230.39 415.452 214.219C422.354 207.575 432.542 198.712 439.732 184.019C446.753 169.665 446.979 158.7 446.985 156.013C447.171 148.384 445.643 140.809 442.512 133.825Z" fill="url(#paint1_linear_1_53)" fill-opacity="0.35"/>
</g>
<g filter="url(#filter2_bi_1_53)">
<path d="M339 189.116C339 171.379 324.574 157 306.778 157L182.096 157C174.626 157 168.117 162.728 170.5 169.785C176.396 187.243 196.803 203.861 212.053 205.061L196.939 208.978C191.518 210.383 188.217 216.09 191.34 220.725C200.311 234.043 218.848 240.967 237.043 243.542L228.574 247.82C223.238 250.515 221.847 257.124 227.065 260.039C236.669 265.405 251.566 268.824 265.031 267.828C312.141 264.341 339 233.137 339 189.116Z" fill="white" fill-opacity="0.5"/>
<path d="M212.304 206.029L212.132 204.064C204.791 203.487 196.068 199.167 188.411 192.753C180.765 186.349 174.321 177.975 171.448 169.465C170.389 166.331 171.288 163.521 173.318 161.445C175.374 159.343 178.602 158 182.096 158L306.778 158C324.025 158 338 171.934 338 189.116C338 210.921 331.351 229.472 318.945 242.996C306.541 256.518 288.302 265.102 264.957 266.83C251.675 267.813 236.975 264.431 227.552 259.166C225.311 257.914 224.55 255.944 224.85 253.999C225.157 252.002 226.61 249.932 229.025 248.713L237.494 244.435L240.337 242.998L237.183 242.552C219.062 239.987 200.894 233.119 192.169 220.167C190.831 218.18 190.862 215.986 191.827 214.095C192.803 212.18 194.743 210.58 197.19 209.946L212.304 206.029Z" stroke="url(#paint2_linear_1_53)" stroke-opacity="0.5" stroke-width="2"/>
</g>
<g filter="url(#filter3_bi_1_53)">
<path d="M359 189.116C359 171.379 373.426 157 391.222 157L515.904 157C523.374 157 529.883 162.728 527.5 169.785C521.604 187.243 501.197 203.861 485.947 205.061L501.061 208.978C506.482 210.383 509.783 216.09 506.66 220.725C497.689 234.043 479.152 240.967 460.957 243.542L469.426 247.82C474.762 250.515 476.154 257.124 470.935 260.039C461.331 265.405 446.434 268.824 432.969 267.828C385.859 264.341 359 233.137 359 189.116Z" fill="white" fill-opacity="0.5"/>
<path d="M485.868 204.064L485.696 206.029L500.81 209.946C503.257 210.58 505.197 212.18 506.173 214.095C507.138 215.986 507.169 218.18 505.831 220.167C497.106 233.119 478.938 239.987 460.817 242.552L457.663 242.998L460.506 244.435L468.976 248.713C471.39 249.932 472.843 252.002 473.15 253.999C473.45 255.944 472.689 257.914 470.448 259.166C461.025 264.431 446.325 267.813 433.043 266.83C409.698 265.102 391.459 256.518 379.055 242.996C366.649 229.472 360 210.921 360 189.116C360 171.934 373.975 158 391.222 158L515.904 158C519.398 158 522.626 159.343 524.682 161.445C526.712 163.521 527.611 166.331 526.552 169.465C523.679 177.975 517.235 186.349 509.589 192.753C501.932 199.167 493.209 203.487 485.868 204.064Z" stroke="url(#paint3_linear_1_53)" stroke-opacity="0.5" stroke-width="2"/>
</g>
<path fill-rule="evenodd" clip-rule="evenodd" d="M349 78C373.853 78 394 73.9706 394 69C394 64.0294 373.853 60 349 60C324.147 60 304 64.0294 304 69C304 73.9706 324.147 78 349 78ZM349 74.6842C364.32 74.6842 376.74 72.1393 376.74 69C376.74 65.8607 364.32 63.3158 349 63.3158C333.68 63.3158 321.26 65.8607 321.26 69C321.26 72.1393 333.68 74.6842 349 74.6842Z" fill="white"/>
</g>
<defs>
<filter id="filter0_d_1_53" x="0" y="0" width="598" height="448" filterUnits="userSpaceOnUse" color-interpolation-filters="sRGB">
<feFlood flood-opacity="0" result="BackgroundImageFix"/>
<feColorMatrix in="SourceAlpha" type="matrix" values="0 0 0 0 0 0 0 0 0 0 0 0 0 0 0 0 0 0 127 0" result="hardAlpha"/>
<feOffset dx="-50" dy="60"/>
<feGaussianBlur stdDeviation="60"/>
<feComposite in2="hardAlpha" operator="out"/>
<feColorMatrix type="matrix" values="0 0 0 0 0.95 0 0 0 0 0.855 0 0 0 0 0.855 0 0 0 1 0"/>
<feBlend mode="normal" in2="BackgroundImageFix" result="effect1_dropShadow_1_53"/>
<feBlend mode="normal" in="SourceGraphic" in2="effect1_dropShadow_1_53" result="shape"/>
</filter>
<filter id="filter1_f_1_53" x="231" y="85" width="236" height="194" filterUnits="userSpaceOnUse" color-interpolation-filters="sRGB">
<feFlood flood-opacity="0" result="BackgroundImageFix"/>
<feBlend mode="normal" in="SourceGraphic" in2="BackgroundImageFix" result="shape"/>
<feGaussianBlur stdDeviation="10" result="effect1_foregroundBlur_1_53"/>
</filter>
<filter id="filter2_bi_1_53" x="130" y="117" width="249" height="191" filterUnits="userSpaceOnUse" color-interpolation-filters="sRGB">
<feFlood flood-opacity="0" result="BackgroundImageFix"/>
<feGaussianBlur in="BackgroundImageFix" stdDeviation="20"/>
<feComposite in2="SourceAlpha" operator="in" result="effect1_backgroundBlur_1_53"/>
<feBlend mode="normal" in="SourceGraphic" in2="effect1_backgroundBlur_1_53" result="shape"/>
<feColorMatrix in="SourceAlpha" type="matrix" values="0 0 0 0 0 0 0 0 0 0 0 0 0 0 0 0 0 0 127 0" result="hardAlpha"/>
<feOffset dx="-10" dy="10"/>
<feGaussianBlur stdDeviation="10"/>
<feComposite in2="hardAlpha" operator="arithmetic" k2="-1" k3="1"/>
<feColorMatrix type="matrix" values="0 0 0 0 1 0 0 0 0 1 0 0 0 0 1 0 0 0 0.5 0"/>
<feBlend mode="normal" in2="shape" result="effect2_innerShadow_1_53"/>
</filter>
<filter id="filter3_bi_1_53" x="319" y="117" width="249" height="191" filterUnits="userSpaceOnUse" color-interpolation-filters="sRGB">
<feFlood flood-opacity="0" result="BackgroundImageFix"/>
<feGaussianBlur in="BackgroundImageFix" stdDeviation="20"/>
<feComposite in2="SourceAlpha" operator="in" result="effect1_backgroundBlur_1_53"/>
<feBlend mode="normal" in="SourceGraphic" in2="effect1_backgroundBlur_1_53" result="shape"/>
<feColorMatrix in="SourceAlpha" type="matrix" values="0 0 0 0 0 0 0 0 0 0 0 0 0 0 0 0 0 0 127 0" result="hardAlpha"/>
<feOffset dx="-10" dy="10"/>
<feGaussianBlur stdDeviation="10"/>
<feComposite in2="hardAlpha" operator="arithmetic" k2="-1" k3="1"/>
<feColorMatrix type="matrix" values="0 0 0 0 1 0 0 0 0 1 0 0 0 0 1 0 0 0 0.5 0"/>
<feBlend mode="normal" in2="shape" result="effect2_innerShadow_1_53"/>
</filter>
<linearGradient id="paint0_linear_1_53" x1="260" y1="107.5" x2="392.303" y2="241.19" gradientUnits="userSpaceOnUse">
<stop stop-color="#FF0000"/>
<stop offset="1" stop-color="#DA0036"/>
</linearGradient>
<linearGradient id="paint1_linear_1_53" x1="270.5" y1="112.099" x2="407.271" y2="213.119" gradientUnits="userSpaceOnUse">
<stop stop-color="#FFD500"/>
<stop offset="1" stop-color="#FFD500" stop-opacity="0"/>
</linearGradient>
<linearGradient id="paint2_linear_1_53" x1="170" y1="157" x2="320" y2="248" gradientUnits="userSpaceOnUse">
<stop stop-color="white"/>
<stop offset="1" stop-color="white" stop-opacity="0.5"/>
</linearGradient>
<linearGradient id="paint3_linear_1_53" x1="365" y1="164.5" x2="492" y2="250" gradientUnits="userSpaceOnUse">
<stop stop-color="white"/>
<stop offset="1" stop-color="white" stop-opacity="0.5"/>
</linearGradient>
</defs>
</svg>
